<?xml version="1.0" standalone="no"?>
<!DOCTYPE svg PUBLIC "-//W3C//DTD SVG 20010904//EN"
 "http://www.w3.org/TR/2001/REC-SVG-20010904/DTD/svg10.dtd">
<svg version="1.0" xmlns="http://www.w3.org/2000/svg"
 width="512.000000pt" height="512.000000pt" viewBox="0 0 512.000000 512.000000"
 preserveAspectRatio="xMidYMid meet">

<g transform="translate(0.000000,512.000000) scale(0.100000,-0.100000)"
fill="#000000" stroke="none">
<path d="M2214 4185 c-387 -59 -719 -244 -965 -538 -130 -155 -250 -389 -299
-583 l-10 -41 -87 -17 c-215 -42 -376 -129 -538 -291 -158 -158 -248 -319
-292 -526 -24 -114 -24 -314 0 -429 93 -431 437 -757 873 -825 87 -14 287 -15
1644 -12 1442 3 1550 4 1620 21 402 95 707 342 858 691 138 321 133 683 -14
994 -165 349 -457 583 -834 666 -41 9 -141 19 -222 22 l-148 6 -45 85 c-67
125 -147 232 -255 341 -216 217 -507 371 -805 426 -123 23 -366 28 -481 10z
m445 -289 c222 -49 416 -150 604 -317 60 -53 145 -158 203 -252 l44 -71 -53
-21 c-177 -73 -395 -230 -457 -329 -60 -99 2 -216 115 -216 49 0 67 11 161 99
119 112 266 192 424 232 86 22 348 18 430 -6 165 -48 296 -122 408 -229 118
-113 210 -268 253 -431 32 -118 32 -326 1 -450 -83 -328 -332 -580 -662 -667
l-85 -23 -1560 0 -1560 0 -75 23 c-135 43 -226 97 -326 197 -55 54 -107 118
-132 160 -231 395 -70 897 350 1089 80 37 194 66 258 66 70 0 128 20 150 50
11 16 29 70 40 122 27 130 54 207 113 322 175 343 511 590 897 660 107 19 353
15 459 -8z"/>
</g>
</svg>
