<?xml version="1.0" standalone="no"?>
<!DOCTYPE svg PUBLIC "-//W3C//DTD SVG 20010904//EN"
 "http://www.w3.org/TR/2001/REC-SVG-20010904/DTD/svg10.dtd">
<svg version="1.0" xmlns="http://www.w3.org/2000/svg"
 width="40px" height="40px" viewBox="0 0 512.000000 512.000000"
 preserveAspectRatio="xMidYMid meet">

<g transform="translate(0.000000,512.000000) scale(0.100000,-0.100000)"
fill="#000000" stroke="none">
<path d="M1664 5110 c-50 -20 -54 -40 -54 -253 l0 -199 29 -29 c55 -54 139
-29 161 49 13 48 13 316 0 364 -18 64 -76 92 -136 68z"/>
<path d="M521 4636 c-47 -26 -63 -84 -37 -134 25 -49 259 -269 293 -276 66
-15 132 51 117 117 -4 22 -44 69 -128 155 -151 155 -183 172 -245 138z"/>
<path d="M2774 4621 c-65 -47 -250 -244 -257 -273 -18 -72 57 -141 127 -118
32 10 264 235 285 277 33 64 -18 143 -92 143 -13 0 -42 -13 -63 -29z"/>
<path d="M1515 4335 c-348 -77 -612 -325 -717 -675 -29 -95 -36 -319 -14 -430
18 -86 64 -212 97 -267 l20 -32 -61 -73 c-73 -87 -152 -240 -181 -353 -79
-307 7 -635 230 -867 156 -165 365 -266 582 -284 l80 -7 -150 -152 c-141 -141
-151 -154 -151 -189 0 -48 13 -72 52 -92 61 -32 76 -21 313 216 l220 220 380
0 380 0 -142 -142 c-77 -79 -146 -153 -152 -165 -20 -39 -13 -73 23 -109 37
-37 70 -43 114 -20 15 8 121 109 237 225 l210 211 380 0 380 0 -154 -154
c-139 -139 -153 -156 -154 -190 -2 -66 59 -117 121 -101 17 4 109 88 247 226
l221 219 174 0 c200 0 268 9 397 52 166 55 344 187 449 334 58 81 119 211 145
309 32 118 33 337 1 455 -85 315 -315 558 -621 654 -156 49 -323 56 -493 20
-19 -4 -29 -2 -32 7 -3 8 -15 49 -27 92 -27 95 -55 127 -111 127 -30 0 -46 -7
-69 -29 -34 -34 -38 -74 -13 -142 8 -24 22 -89 30 -144 13 -89 18 -103 44
-127 37 -34 63 -35 149 -4 292 105 632 7 816 -236 193 -255 205 -585 30 -848
-86 -130 -213 -227 -372 -284 l-88 -31 -1460 0 -1460 0 -80 27 c-116 40 -199
92 -290 183 -135 135 -202 281 -212 466 -13 215 59 403 212 554 114 113 240
176 404 203 113 19 232 8 351 -33 62 -21 79 -23 107 -14 46 15 61 41 73 129
51 358 273 631 608 744 155 53 345 59 509 17 76 -20 86 -20 118 -7 24 10 40
26 50 49 28 68 -7 118 -105 147 -194 58 -441 52 -633 -15 l-68 -23 -77 79
c-131 138 -307 237 -484 273 -94 19 -298 20 -383 1z m415 -215 c36 -12 83 -31
105 -42 98 -50 250 -179 230 -196 -6 -5 -40 -32 -76 -60 -179 -139 -323 -359
-379 -575 -14 -58 -22 -72 -37 -71 -10 1 -64 8 -120 15 -171 21 -366 -15 -526
-99 -78 -40 -74 -42 -108 47 -40 108 -51 179 -46 306 5 141 31 236 96 345 101
170 258 288 453 340 102 28 313 23 408 -10z"/>
<path d="M3509 3765 c-53 -29 -61 -105 -17 -152 43 -46 125 -37 153 18 49 95
-43 185 -136 134z"/>
<path d="M35 3487 c-60 -51 -36 -145 43 -167 48 -13 316 -13 364 0 78 22 103
106 49 161 l-29 29 -201 0 c-193 0 -201 -1 -226 -23z"/>
<path d="M1725 641 c-11 -5 -130 -120 -265 -255 -240 -241 -245 -246 -245
-287 0 -34 6 -46 33 -70 36 -32 69 -36 110 -15 32 18 475 462 491 493 18 36
13 71 -16 103 -30 32 -75 45 -108 31z"/>
<path d="M2755 631 c-16 -10 -135 -124 -262 -253 -229 -230 -233 -235 -233
-275 0 -57 31 -92 88 -100 l44 -6 254 254 c243 243 254 256 254 292 0 49 -13
73 -50 92 -38 20 -59 19 -95 -4z"/>
<path d="M3785 622 c-75 -56 -473 -466 -480 -494 -19 -77 46 -142 123 -123 34
8 485 454 508 503 29 61 -8 127 -77 138 -27 5 -42 0 -74 -24z"/>
</g>
</svg>
