<?xml version="1.0" standalone="no"?>
<!DOCTYPE svg PUBLIC "-//W3C//DTD SVG 20010904//EN"
 "http://www.w3.org/TR/2001/REC-SVG-20010904/DTD/svg10.dtd">
<svg version="1.0" xmlns="http://www.w3.org/2000/svg"
 width="512.000000pt" height="512.000000pt" viewBox="0 0 512.000000 512.000000"
 preserveAspectRatio="xMidYMid meet">

<g transform="translate(0.000000,512.000000) scale(0.100000,-0.100000)"
fill="#000000" stroke="none">
<path d="M2205 4996 c-481 -82 -862 -337 -1096 -733 -58 -100 -132 -267 -155
-356 l-17 -63 -106 -25 c-140 -34 -245 -79 -355 -153 -248 -164 -413 -422
-461 -717 -94 -582 307 -1132 891 -1224 87 -14 286 -15 1634 -12 1697 3 1568
-2 1765 67 287 99 540 318 677 586 96 188 133 342 133 559 -1 167 -16 259 -66
403 -102 288 -305 523 -580 671 -172 92 -413 149 -598 139 l-66 -3 -38 70
c-74 138 -151 240 -266 355 -220 219 -474 356 -776 420 -129 27 -403 35 -520
16z m436 -346 c226 -46 439 -155 602 -309 56 -52 150 -169 191 -236 l34 -57
-99 -49 c-122 -60 -189 -105 -300 -202 -95 -83 -119 -122 -119 -194 0 -73 39
-122 113 -143 62 -18 107 1 195 82 173 158 323 231 529 259 291 39 607 -93
794 -330 147 -186 216 -425 189 -651 -46 -371 -292 -656 -657 -762 l-78 -23
-1550 0 -1550 0 -75 23 c-202 64 -355 190 -450 374 -58 111 -81 209 -81 343 0
233 88 428 259 570 124 103 260 158 432 174 54 5 107 14 118 20 44 24 69 68
86 156 98 492 482 870 972 959 121 22 326 20 445 -4z"/>
<path d="M1205 1630 c-55 -12 -76 -34 -182 -189 -196 -285 -307 -484 -348
-626 -22 -76 -22 -206 0 -282 59 -202 212 -352 410 -403 99 -25 191 -25 289 0
94 24 154 56 239 126 115 95 184 232 195 386 12 179 -72 364 -360 797 -57 85
-114 162 -128 172 -31 21 -75 28 -115 19z m96 -538 c84 -130 157 -260 179
-320 29 -76 26 -127 -11 -201 -47 -93 -122 -141 -222 -141 -103 0 -186 45
-234 128 -24 39 -28 58 -28 118 0 66 4 79 52 175 51 101 191 329 202 329 3 0
31 -39 62 -88z"/>
<path d="M2525 1630 c-55 -12 -76 -34 -180 -185 -187 -272 -281 -439 -334
-590 -74 -208 -24 -415 138 -575 88 -87 149 -123 257 -150 330 -85 651 112
720 440 26 123 7 236 -66 398 -67 146 -372 618 -417 643 -36 21 -80 28 -118
19z m113 -563 c102 -156 174 -303 180 -366 9 -96 -50 -201 -139 -245 -121 -60
-278 -14 -346 102 -24 39 -28 58 -28 118 0 66 4 79 52 175 48 97 192 329 203
329 3 0 38 -51 78 -113z"/>
<path d="M3837 1626 c-54 -20 -58 -25 -172 -190 -312 -458 -394 -659 -351
-866 33 -160 147 -315 283 -388 125 -66 301 -90 427 -57 251 66 436 298 438
550 1 168 -73 329 -335 725 -110 166 -140 205 -167 220 -31 16 -86 19 -123 6z
m123 -561 c39 -60 94 -157 123 -214 47 -94 52 -110 52 -170 0 -144 -105 -250
-246 -251 -101 0 -189 48 -236 128 -24 39 -28 58 -28 118 0 66 4 79 52 175 56
112 193 331 205 326 4 -1 39 -51 78 -112z"/>
</g>
</svg>
