<?xml version="1.0" standalone="no"?>
<!DOCTYPE svg PUBLIC "-//W3C//DTD SVG 20010904//EN"
 "http://www.w3.org/TR/2001/REC-SVG-20010904/DTD/svg10.dtd">
<svg version="1.0" xmlns="http://www.w3.org/2000/svg"
 width="512.000000pt" height="512.000000pt" viewBox="0 0 512.000000 512.000000"
 preserveAspectRatio="xMidYMid meet">

<g transform="translate(0.000000,512.000000) scale(0.100000,-0.100000)"
fill="#000000" stroke="none">
<path d="M1608 5104 c-34 -18 -48 -43 -48 -84 0 -42 15 -67 50 -85 43 -22 76
-18 112 14 27 24 33 36 33 71 0 35 -6 47 -33 71 -36 32 -72 36 -114 13z"/>
<path d="M3914 5086 l-34 -34 0 -118 0 -118 -37 36 c-45 43 -82 55 -123 38
-38 -16 -60 -51 -60 -96 0 -34 10 -47 110 -149 l110 -111 0 -268 c0 -165 -4
-266 -10 -264 -5 2 -110 61 -234 133 l-224 129 -37 143 c-33 123 -42 147 -67
168 -65 55 -158 11 -158 -74 0 -22 4 -51 10 -65 5 -14 7 -26 5 -26 -3 0 -49
25 -102 55 -54 30 -110 55 -125 55 -39 0 -87 -47 -94 -90 -8 -49 19 -79 126
-142 49 -28 87 -54 85 -57 -3 -2 -27 -12 -53 -20 -83 -28 -106 -108 -47 -167
33 -33 74 -31 229 11 l129 36 228 -133 c126 -72 229 -135 229 -138 0 -4 -103
-66 -229 -139 l-229 -131 -128 35 c-155 42 -196 44 -229 11 -59 -59 -36 -139
47 -167 26 -8 50 -18 53 -20 2 -3 -36 -29 -85 -57 -107 -63 -134 -93 -126
-142 7 -43 55 -90 94 -90 15 0 71 25 125 55 53 30 99 55 102 55 2 0 0 -12 -5
-26 -6 -14 -10 -43 -10 -65 0 -85 93 -129 158 -74 25 21 34 45 67 168 l37 143
224 129 c124 72 229 132 234 133 6 2 10 -99 10 -264 l0 -268 -110 -111 c-100
-102 -110 -115 -110 -149 0 -45 22 -80 60 -96 41 -17 78 -5 123 38 l37 36 0
-118 0 -118 34 -34 c36 -36 67 -42 111 -22 44 20 55 55 55 179 l0 111 40 -36
c47 -43 80 -52 121 -36 40 17 59 47 59 94 0 36 -8 47 -110 151 l-110 111 0
267 c0 147 3 267 7 267 3 0 108 -59 234 -132 l227 -131 38 -141 c29 -109 44
-147 65 -168 34 -35 84 -37 123 -7 39 31 48 62 35 115 -6 25 -10 47 -8 49 2 2
47 -21 99 -51 52 -29 105 -54 117 -54 77 0 126 82 89 149 -7 13 -57 50 -111
81 l-97 58 50 16 c66 22 87 47 87 103 0 37 -5 49 -28 69 -38 33 -74 31 -229
-11 l-129 -35 -229 132 c-127 73 -230 135 -230 138 0 3 103 65 230 138 l229
132 130 -35 c154 -42 190 -44 228 -11 23 20 28 32 28 69 0 56 -21 81 -87 103
l-50 16 97 58 c54 31 104 68 111 81 37 67 -12 149 -89 149 -12 0 -65 -25 -117
-54 -52 -30 -97 -53 -99 -51 -2 2 2 24 8 49 13 53 4 84 -35 115 -39 30 -89 28
-123 -6 -21 -22 -36 -60 -65 -169 l-38 -141 -227 -131 c-126 -73 -231 -132
-234 -132 -4 0 -7 120 -7 267 l0 267 110 111 c102 104 110 115 110 151 0 47
-19 77 -59 94 -41 16 -74 7 -121 -36 l-40 -36 0 110 c0 123 -10 156 -51 178
-45 23 -78 17 -115 -20z"/>
<path d="M773 4562 c-69 -25 -134 -76 -176 -139 -113 -171 -47 -398 143 -491
47 -23 68 -27 140 -27 73 0 93 4 142 28 72 35 130 93 165 165 24 49 28 69 28
142 0 73 -4 93 -28 142 -57 117 -164 188 -290 195 -52 3 -86 -1 -124 -15z
m178 -205 c112 -74 75 -237 -58 -253 -48 -6 -100 20 -130 65 -79 118 70 267
188 188z"/>
<path d="M1613 3525 c-34 -24 -47 -76 -29 -118 17 -43 41 -57 94 -57 33 0 45
6 66 31 17 19 26 43 26 64 0 21 -9 45 -26 64 -21 26 -33 31 -68 31 -23 0 -51
-7 -63 -15z"/>
<path d="M28 3500 c-27 -28 -30 -36 -25 -73 11 -82 102 -116 164 -63 23 20 28
32 28 71 0 39 -5 51 -28 71 -42 36 -99 33 -139 -6z"/>
<path d="M2453 2882 c-69 -25 -134 -76 -176 -139 -113 -171 -47 -398 143 -491
47 -23 68 -27 140 -27 73 0 93 4 142 28 72 35 130 93 165 165 24 49 28 69 28
142 0 73 -4 93 -28 142 -57 117 -164 188 -290 195 -52 3 -86 -1 -124 -15z
m178 -205 c45 -30 71 -82 65 -130 -16 -133 -179 -170 -253 -58 -79 118 70 267
188 188z"/>
<path d="M1091 2586 c-42 -23 -50 -53 -51 -175 l0 -113 -40 36 c-47 43 -80 52
-121 36 -40 -17 -59 -47 -59 -94 0 -36 8 -47 110 -151 l110 -111 0 -267 c0
-147 -3 -267 -6 -267 -4 0 -109 59 -234 132 l-228 132 -38 140 c-29 109 -44
147 -65 169 -34 34 -84 36 -123 6 -39 -31 -48 -62 -35 -115 6 -25 10 -47 8
-49 -2 -2 -47 21 -99 51 -52 29 -105 54 -117 54 -36 0 -73 -22 -89 -51 -33
-64 -11 -108 80 -161 39 -22 84 -48 100 -58 l28 -18 -50 -16 c-66 -22 -87 -47
-87 -103 0 -37 5 -49 28 -69 38 -33 74 -31 229 11 l130 35 229 -132 c126 -73
229 -135 229 -138 0 -3 -103 -65 -229 -138 l-229 -132 -129 35 c-153 42 -192
44 -230 11 -23 -20 -28 -32 -28 -69 0 -56 21 -81 87 -103 l50 -16 -28 -18
c-16 -10 -61 -36 -100 -58 -91 -53 -113 -97 -80 -161 16 -29 53 -51 89 -51 12
0 65 25 117 54 52 30 97 53 99 51 2 -2 -2 -24 -8 -49 -13 -53 -4 -84 35 -115
39 -30 89 -28 123 7 21 21 36 59 65 168 l38 140 228 132 c125 73 230 132 234
132 3 0 6 -120 6 -267 l0 -267 -110 -111 c-102 -104 -110 -115 -110 -151 0
-47 19 -77 59 -94 41 -16 74 -7 121 36 l40 36 0 -111 c0 -124 11 -159 55 -179
44 -20 75 -14 111 22 l34 34 0 118 0 118 38 -36 c44 -43 81 -55 122 -38 38 16
60 51 60 96 0 34 -10 47 -110 149 l-110 111 0 267 c0 147 2 267 6 267 3 0 108
-59 233 -132 l229 -131 37 -144 c33 -123 42 -147 67 -168 65 -55 158 -11 158
74 0 22 -4 51 -10 65 -5 14 -7 26 -5 26 3 0 49 -25 102 -55 54 -30 110 -55
125 -55 16 0 41 12 60 29 27 24 33 36 33 69 0 53 -21 74 -130 137 -67 39 -82
51 -68 57 10 4 35 14 55 22 70 28 86 108 33 162 -33 33 -71 31 -227 -11 l-130
-35 -229 132 c-126 73 -229 135 -229 138 0 3 103 65 229 138 l229 132 128 -35
c71 -19 146 -35 167 -35 106 0 129 146 29 186 -20 8 -45 18 -55 22 -14 6 1 18
68 57 109 63 130 84 130 137 0 33 -6 45 -33 69 -19 17 -44 29 -60 29 -15 0
-71 -25 -125 -55 -53 -30 -99 -55 -102 -55 -2 0 0 12 5 26 6 14 10 43 10 65 0
85 -93 129 -158 74 -25 -21 -34 -45 -67 -168 l-37 -144 -229 -131 c-125 -73
-231 -132 -234 -132 -3 0 -5 120 -5 267 l0 267 110 111 c100 102 110 115 110
149 0 45 -22 80 -60 96 -41 17 -78 5 -122 -38 l-38 -36 0 118 0 118 -34 34
c-37 37 -73 43 -115 20z"/>
<path d="M3384 1736 c-37 -37 -43 -70 -20 -115 15 -28 53 -51 86 -51 51 0 100
49 100 99 0 34 -23 72 -51 87 -45 23 -78 17 -115 -20z"/>
<path d="M4984 1751 c-52 -22 -77 -87 -53 -134 49 -96 189 -61 189 47 0 56
-83 109 -136 87z"/>
<path d="M4133 1202 c-69 -25 -134 -76 -176 -139 -113 -171 -47 -398 143 -491
47 -23 68 -27 140 -27 73 0 93 4 142 28 72 35 130 93 165 165 24 49 28 69 28
142 0 73 -4 93 -28 142 -57 117 -164 188 -290 195 -52 3 -86 -1 -124 -15z
m175 -202 c97 -59 92 -191 -9 -242 -66 -34 -138 -12 -179 54 -53 87 17 208
120 208 19 0 50 -9 68 -20z"/>
<path d="M3391 186 c-87 -48 -50 -186 49 -186 51 0 100 49 100 99 0 75 -83
124 -149 87z"/>
</g>
</svg>
