<?xml version="1.0" standalone="no"?>
<!DOCTYPE svg PUBLIC "-//W3C//DTD SVG 20010904//EN"
 "http://www.w3.org/TR/2001/REC-SVG-20010904/DTD/svg10.dtd">
<svg version="1.0" xmlns="http://www.w3.org/2000/svg"
 width="512.000000pt" height="512.000000pt" viewBox="0 0 512.000000 512.000000"
 preserveAspectRatio="xMidYMid meet">

<g transform="translate(0.000000,512.000000) scale(0.100000,-0.100000)"
fill="#000000" stroke="none">
<path d="M2488 5099 c-68 -35 -78 -71 -78 -280 0 -202 7 -231 64 -272 43 -31
129 -31 172 0 57 41 64 70 64 272 0 162 -2 186 -20 221 -37 73 -127 99 -202
59z"/>
<path d="M1594 4929 c-35 -10 -82 -53 -95 -87 -18 -47 -8 -95 52 -239 74 -180
90 -206 133 -227 99 -47 216 23 216 129 0 44 -117 343 -149 379 -35 40 -106
60 -157 45z"/>
<path d="M3436 4925 c-22 -7 -49 -24 -62 -37 -34 -35 -154 -333 -154 -382 0
-130 159 -195 251 -102 34 33 159 338 159 385 0 98 -102 169 -194 136z"/>
<path d="M795 4400 c-11 -4 -33 -22 -49 -38 -30 -33 -44 -97 -32 -148 11 -43
249 -280 302 -300 114 -44 229 62 194 179 -9 32 -38 68 -119 151 -141 144
-171 166 -230 165 -25 0 -55 -4 -66 -9z"/>
<path d="M4174 4381 c-21 -16 -87 -77 -145 -137 -121 -124 -141 -163 -120
-233 14 -48 68 -98 116 -107 67 -12 111 15 248 155 73 74 129 139 133 155 10
41 -1 110 -22 139 -46 63 -145 76 -210 28z"/>
<path d="M2425 4210 c-752 -65 -1365 -625 -1496 -1366 -29 -165 -29 -403 0
-568 121 -686 662 -1226 1349 -1347 163 -29 402 -29 566 0 600 106 1098 537
1288 1115 58 177 80 318 80 516 0 198 -22 339 -80 516 -163 496 -554 888
-1052 1055 -198 66 -452 97 -655 79z m375 -316 c272 -47 543 -193 741 -401
243 -257 372 -578 372 -933 0 -371 -133 -691 -398 -955 -205 -206 -445 -331
-725 -381 -125 -22 -335 -22 -460 0 -564 100 -1006 542 -1106 1106 -22 125
-22 335 0 460 51 287 195 554 406 753 318 299 736 425 1170 351z"/>
<path d="M260 3609 c-43 -27 -57 -44 -70 -89 -13 -46 2 -102 38 -140 36 -38
308 -151 377 -157 118 -10 193 112 134 217 -26 46 -40 54 -222 129 -162 67
-202 73 -257 40z"/>
<path d="M4615 3575 c-185 -77 -209 -91 -233 -134 -57 -100 11 -221 124 -221
58 0 350 121 386 160 91 99 25 252 -109 249 -22 0 -92 -23 -168 -54z"/>
<path d="M78 2689 c-43 -22 -78 -81 -78 -129 0 -50 35 -107 80 -130 35 -18 59
-20 221 -20 202 0 231 7 272 64 31 43 31 129 0 172 -41 57 -70 64 -275 64
-162 -1 -187 -3 -220 -21z"/>
<path d="M4602 2693 c-52 -25 -77 -69 -77 -133 0 -41 6 -63 22 -86 41 -57 70
-64 272 -64 162 0 186 2 221 20 45 23 80 80 80 130 0 50 -35 107 -80 130 -35
18 -58 20 -222 20 -148 0 -189 -4 -216 -17z"/>
<path d="M409 1832 c-86 -37 -165 -74 -175 -82 -30 -26 -56 -97 -49 -133 17
-77 75 -127 149 -127 33 0 293 100 358 138 14 8 36 32 47 52 57 102 -14 221
-129 219 -32 0 -90 -20 -201 -67z"/>
<path d="M4432 1880 c-69 -42 -91 -128 -51 -200 11 -20 33 -44 47 -52 65 -38
325 -138 358 -138 132 0 196 152 106 250 -18 20 -78 50 -186 95 -175 71 -219
78 -274 45z"/>
<path d="M1005 1201 c-50 -23 -281 -258 -291 -295 -3 -15 -4 -48 -1 -73 9 -86
100 -142 193 -119 43 11 280 249 300 302 29 76 -7 159 -83 190 -43 18 -70 17
-118 -5z"/>
<path d="M3995 1206 c-70 -31 -108 -112 -85 -183 13 -40 188 -228 264 -284 65
-48 164 -35 210 28 21 29 32 98 22 139 -4 15 -60 81 -129 152 -152 156 -203
182 -282 148z"/>
<path d="M1679 739 c-45 -26 -52 -40 -128 -222 -67 -162 -73 -202 -40 -257 27
-44 44 -57 93 -71 46 -13 109 7 143 44 34 36 153 334 153 381 0 112 -123 182
-221 125z"/>
<path d="M3292 740 c-44 -27 -72 -76 -72 -126 0 -47 119 -345 153 -381 34 -37
97 -57 143 -44 49 14 66 27 93 71 33 55 27 95 -40 257 -76 184 -83 196 -129
222 -47 26 -105 27 -148 1z"/>
<path d="M2492 584 c-18 -9 -43 -31 -55 -48 -21 -29 -22 -43 -25 -223 -3 -177
-2 -194 18 -232 23 -46 80 -81 130 -81 50 0 107 35 130 80 18 35 20 59 20 221
0 201 -7 231 -63 271 -39 28 -112 34 -155 12z"/>
</g>
</svg>
