<?xml version="1.0" standalone="no"?>
<!DOCTYPE svg PUBLIC "-//W3C//DTD SVG 20010904//EN"
 "http://www.w3.org/TR/2001/REC-SVG-20010904/DTD/svg10.dtd">
<svg version="1.0" xmlns="http://www.w3.org/2000/svg"
 width="512.000000pt" height="512.000000pt" viewBox="0 0 512.000000 512.000000"
 preserveAspectRatio="xMidYMid meet">

<g transform="translate(0.000000,512.000000) scale(0.100000,-0.100000)"
fill="#000000" stroke="none">
<path d="M3818 4899 c-514 -42 -943 -407 -1072 -914 -8 -33 -20 -113 -27 -178
-10 -105 -9 -123 6 -162 41 -110 164 -154 262 -94 56 35 73 77 89 212 23 200
76 332 190 476 73 91 175 171 288 226 118 57 187 74 321 82 254 14 468 -68
646 -246 180 -181 257 -381 246 -640 -7 -175 -45 -289 -143 -437 -110 -167
-280 -287 -489 -346 l-80 -23 -1850 -5 c-1737 -5 -1852 -6 -1882 -22 -18 -10
-45 -35 -60 -55 -24 -32 -28 -45 -28 -104 0 -73 14 -103 69 -143 l27 -21 1842
-3 c2031 -3 1924 -6 2120 59 575 191 922 786 802 1374 -123 602 -668 1013
-1277 964z"/>
<path d="M144 2161 c-87 -21 -139 -85 -139 -171 0 -68 29 -117 90 -152 l40
-23 1455 -5 c1176 -4 1463 -8 1495 -19 220 -73 375 -234 430 -446 20 -77 20
-232 0 -310 -57 -222 -237 -398 -460 -451 -91 -21 -244 -15 -335 15 -244 78
-402 282 -428 553 -11 117 -36 164 -104 197 -78 37 -148 23 -205 -42 -39 -45
-47 -85 -40 -196 11 -160 72 -332 172 -480 258 -384 781 -523 1211 -322 210
99 361 245 460 446 133 270 133 594 0 865 -105 214 -286 385 -497 471 -100 41
-168 57 -294 69 -126 12 -2801 12 -2851 1z"/>
</g>
</svg>
